Coordinates
version=1
nRows=25
nColumns=28
inDegrees=yes

Units are S.I. units (second, meters, Newtons, ...)
Angles are in degrees.

endheader
time	pelvis_tilt	pelvis_list	pelvis_rotation	pelvis_tx	pelvis_ty	pelvis_tz	hip_flexion_r	hip_adduction_r	hip_rotation_r	knee_angle_r	ankle_angle_r	subtalar_angle_r	mtp_angle_r	hip_flexion_l	hip_adduction_l	hip_rotation_l	knee_angle_l	socket_flexion	socket_adduction	socket_rotation	socket_tx	socket_ty	socket_tz	foot_flex	lumbar_extension	lumbar_bending	lumbar_rotation
      0.65416667	     -1.39832531	     -1.19021799	      6.65543625	     -0.05109991	      0.98175046	      0.26748225	     28.23238249	      4.09752932	     -1.00497561	     -7.92482573	     10.33717121	    -27.11041144	     -4.19260239	    -19.12289348	     -0.16126712	     18.41190968	     -4.60069143	      0.00000000	      0.00000000	      0.00000000	      0.00000000	     -0.00163547	      0.00000000	      9.99824944	    -10.40515010	     -0.46840427	     -2.45376639
      0.65833333	     -1.35497218	     -1.27262097	      6.81247571	     -0.04541339	      0.98094172	      0.26688891	     28.26477248	      4.23987465	     -0.77974439	     -8.40640773	     10.29003728	    -27.16101578	     -4.13511142	    -19.35864783	     -0.27509463	     18.56370598	     -4.87690017	      0.00000000	      0.00000000	      0.00000000	      0.00000000	     -0.00157153	      0.00000000	     10.00598473	    -10.46430174	     -0.23809853	     -2.49473642
      0.66250000	     -1.30001746	     -1.33800592	      6.95324814	     -0.03970904	      0.98012992	      0.26630003	     28.34970726	      4.36827370	     -0.58659273	     -9.04229724	     10.14940595	    -27.22557718	     -4.08739821	    -19.62040010	     -0.36617035	     18.64658612	     -5.12834921	      0.00000000	      0.00000000	      0.00000000	      0.00000000	     -0.00145729	      0.00000000	     10.06442469	    -10.53999594	      0.00661279	     -2.55771712
      0.66666667	     -1.10197777	     -1.41719196	      6.96886348	     -0.03387036	      0.97943141	      0.26596620	     28.44452428	      4.57018288	     -0.71711652	     -9.98637356	      9.83067073	    -27.52816440	     -3.80912982	    -20.06866092	     -0.45184848	     18.47023743	     -5.35371038	      0.00000000	      0.00000000	      0.00000000	      0.00000000	     -0.00132086	      0.00000000	     10.12422380	    -10.75495998	      0.21905863	     -2.80270470
      0.67083333	     -1.06245256	     -1.47877510	      7.12322103	     -0.02813091	      0.97869422	      0.26527196	     28.49757905	      4.67854368	     -0.45641468	    -10.56177305	      9.62868803	    -27.52586439	     -3.72857777	    -20.28213787	     -0.52617559	     18.60920918	     -5.67073756	      0.00000000	      0.00000000	      0.00000000	      0.00000000	     -0.00119406	      0.00000000	     10.13574806	    -10.80403128	      0.48248103	     -2.82092546
      0.67500000	     -0.90017963	     -1.54815294	      7.12813383	     -0.02228373	      0.97798755	      0.26485750	     28.62540055	      4.85379284	     -0.54458452	    -11.52022843	      9.14123149	    -27.76558160	     -3.37528692	    -20.66064127	     -0.58044517	     18.45973587	     -5.95516960	      0.00000000	      0.00000000	      0.00000000	      0.00000000	     -0.00106990	      0.00000000	     10.17011812	    -10.97642454	      0.72477857	     -2.98587281
      0.67916667	     -0.85151689	     -1.63306818	      7.26230771	     -0.01648774	      0.97731935	      0.26421754	     28.68980119	      4.99191911	     -0.31974690	    -12.15544203	      8.89246783	    -27.78663127	     -3.25520221	    -20.85518355	     -0.66862777	     18.56903979	     -6.32596289	      0.00000000	      0.00000000	      0.00000000	      0.00000000	     -0.00096715	      0.00000000	     10.14939670	    -11.04223545	      0.96869247	     -3.00995263
      0.68333333	     -0.32853487	     -1.77458897	      7.42890750	     -0.01057074	      0.97729788	      0.26339579	     28.28688562	      5.15561190	     -0.70500714	    -12.70752798	      6.36180882	    -29.54934050	      3.04650044	    -21.59559410	     -0.88130820	     18.50776803	     -6.59976085	      0.00000000	      0.00000000	      0.00000000	      0.00000000	     -0.00073052	      0.00000000	     10.13133228	    -11.61851990	      1.40627076	     -3.36629747
      0.68750000	     -0.30789517	     -1.84984314	      7.53894318	     -0.00471463	      0.97666147	      0.26277061	     28.40732299	      5.27936868	     -0.50132121	    -13.43006694	      6.14651350	    -29.51648644	      3.06274616	    -21.72438104	     -0.93601172	     18.55142959	     -7.04714831	      0.00000000	      0.00000000	      0.00000000	      0.00000000	     -0.00061370	      0.00000000	     10.06583198	    -11.64641983	      1.64893172	     -3.36141567
      0.69166667	     -0.25041562	     -1.92234879	      7.47320823	      0.00131520	      0.97593894	      0.26240003	     28.69595364	      5.43440265	     -0.66893499	    -14.55108950	      5.69185223	    -29.59355329	      3.15499897	    -21.94528100	     -0.93535836	     18.33770797	     -7.43669947	      0.00000000	      0.00000000	      0.00000000	      0.00000000	     -0.00046945	      0.00000000	     10.02445353	    -11.67647658	      1.86685457	     -3.42467979
      0.69583333	     -0.19957976	     -2.02337726	      7.52528347	      0.00730061	      0.97532889	      0.26180845	     28.87881177	      5.56353435	     -0.75722292	    -15.45056101	      5.21273526	    -29.69451728	      3.60431127	    -22.10096682	     -0.99252019	     18.28005838	     -7.90288695	      0.00000000	      0.00000000	      0.00000000	      0.00000000	     -0.00040411	      0.00000000	      9.92565982	    -11.70382701	      2.12920505	     -3.46555844
      0.70000000	     -0.14341278	     -2.11915877	      7.62360973	      0.01318096	      0.97493162	      0.26115028	     28.93117668	      5.69454886	     -0.58659931	    -16.13729946	      4.98404539	    -29.69142436	      3.65615621	    -22.19474190	     -1.04912710	     18.30559949	     -8.46327982	      0.00000000	      0.00000000	      0.00000000	      0.00000000	     -0.00026687	      0.00000000	      9.78109227	    -11.77187777	      2.41402729	     -3.47390195
      0.70416667	      0.00296486	     -2.23281062	      7.55535136	      0.01934012	      0.97445158	      0.26069574	     29.11069715	      5.85644867	     -0.88634949	    -17.24624019	      4.37816140	    -29.87152908	      3.96152640	    -22.46419587	     -1.08248927	     18.04040650	     -8.93806816	      0.00000000	      0.00000000	      0.00000000	      0.00000000	     -0.00018596	      0.00000000	      9.65663550	    -11.89646792	      2.70152413	     -3.58409795
      0.70833333	      0.07318033	     -2.34021502	      7.65283713	      0.02525449	      0.97416813	      0.25999381	     29.12135062	      5.98342674	     -0.72852305	    -17.90062174	      4.15981375	    -29.87438479	      4.03426612	    -22.52959876	     -1.13872816	     18.05710621	     -9.57164906	      0.00000000	      0.00000000	      0.00000000	      0.00000000	     -0.00005745	      0.00000000	      9.46226794	    -11.95962213	      2.99773872	     -3.58234083
      0.71250000	      0.34592492	     -2.47320918	      7.69247347	      0.03146727	      0.97406777	      0.25920219	     29.09923564	      6.05284659	     -1.32511316	    -18.81338044	      2.39293731	    -30.81825613	      8.85351610	    -22.86253888	     -1.21972890	     17.88919333	    -10.14473809	      0.00000000	      0.00000000	      0.00000000	      0.00000000	      0.00011728	      0.00000000	      9.29444551	    -12.21654719	      3.36952719	     -3.75766673
      0.71666667	      0.42136834	     -2.58105726	      7.75215309	      0.03750433	      0.97390423	      0.25854764	     29.09139236	      6.17978840	     -1.20685402	    -19.47367524	      2.21487992	    -30.79913130	      8.84421034	    -22.89784611	     -1.25472940	     17.84994770	    -10.85259529	      0.00000000	      0.00000000	      0.00000000	      0.00000000	      0.00026577	      0.00000000	      9.03409023	    -12.27278603	      3.65382568	     -3.75702855
      0.72083333	      0.57072706	     -2.71186753	      7.63841728	      0.04374247	      0.97370872	      0.25809913	     29.20265203	      6.34686287	     -1.46325606	    -20.51652226	      1.81871234	    -30.81905780	      8.82584229	    -23.06199332	     -1.26203836	     17.53546769	    -11.50533050	      0.00000000	      0.00000000	      0.00000000	      0.00000000	      0.00042238	      0.00000000	      8.79263205	    -12.39501857	      3.96685900	     -3.82171413
      0.72500000	      0.71419756	     -2.84607612	      7.61497699	      0.04993996	      0.97366995	      0.25749288	     29.19419552	      6.49146846	     -1.58426145	    -21.32983559	      1.52788342	    -30.79006118	      8.88526836	    -23.15457162	     -1.29330639	     17.32927662	    -12.25264238	      0.00000000	      0.00000000	      0.00000000	      0.00000000	      0.00059684	      0.00000000	      8.50779275	    -12.50655697	      4.29225115	     -3.83834050
      0.72916667	      0.80850868	     -2.96134419	      7.66004209	      0.05611498	      0.97374735	      0.25685766	     29.11247951	      6.61636395	     -1.49589383	    -21.92898718	      1.38454209	    -30.75818012	      8.91179465	    -23.13004132	     -1.32275916	     17.24660186	    -13.09179643	      0.00000000	      0.00000000	      0.00000000	      0.00000000	      0.00084369	      0.00000000	      8.18473108	    -12.56132258	      4.57487135	     -3.82345997
      0.73333333	      1.00604474	     -3.11792740	      7.52014918	      0.06244298	      0.97377441	      0.25636267	     29.11015536	      6.79390746	     -1.80095618	    -22.87826715	      1.04278892	    -30.66944258	      9.04219794	    -23.26430517	     -1.33212730	     16.84297845	    -13.88302621	      0.00000000	      0.00000000	      0.00000000	      0.00000000	      0.00101163	      0.00000000	      7.87226878	    -12.73109142	      4.91258895	     -3.85412699
      0.73750000	      1.17991927	     -3.25629257	      7.46099411	      0.06874944	      0.97396434	      0.25575609	     28.99944597	      6.94004105	     -1.93418681	    -23.60000030	      0.84112770	    -30.53063460	      9.23410558	    -23.30648827	     -1.34345967	     16.55602570	    -14.77093105	      0.00000000	      0.00000000	      0.00000000	      0.00000000	      0.00127922	      0.00000000	      7.52334353	    -12.87051686	      5.22956455	     -3.84302229
      0.74166667	      1.28966310	     -3.36470009	      7.48038686	      0.07503107	      0.97424586	      0.25510983	     28.84518662	      7.05794378	     -1.87357848	    -24.13893690	      0.74497050	    -30.46950119	      9.29583951	    -23.21953044	     -1.34716326	     16.40724250	    -15.73458288	      0.00000000	      0.00000000	      0.00000000	      0.00000000	      0.00164198	      0.00000000	      7.13981435	    -12.91974076	      5.50808607	     -3.81596501
      0.74583333	      1.55185678	     -3.51904442	      7.30148250	      0.08145871	      0.97454047	      0.25464426	     28.69102951	      7.23562048	     -2.16586469	    -24.97341802	      0.55147919	    -30.07290171	      9.74210960	    -23.33908828	     -1.34246440	     15.87850995	    -16.65589887	      0.00000000	      0.00000000	      0.00000000	      0.00000000	      0.00192364	      0.00000000	      6.78544182	    -13.14785229	      5.83224097	     -3.77002049
      0.75000000	      1.66276146	     -3.61876426	      7.29210735	      0.08781709	      0.97494805	      0.25400411	     28.48725544	      7.34353408	     -2.14562869	    -25.45474285	      0.49661817	    -29.99727186	      9.82691618	    -23.19385400	     -1.32351889	     15.66547984	    -17.71310764	      0.00000000	      0.00000000	      0.00000000	      0.00000000	      0.00238826	      0.00000000	      6.37715106	    -13.19387469	      6.09105669	     -3.73713911
      0.75416667	      2.12919911	     -3.69523285	      7.12295269	      0.09427137	      0.97560335	      0.25333809	     28.08423888	      7.36892432	     -2.67175461	    -26.29739878	      0.73616381	    -28.45648559	     11.93831774	    -23.47708021	     -1.24978370	     15.08972693	    -18.72495809	      0.00000000	      0.00000000	      0.00000000	      0.00000000	      0.00290916	      0.00000000	      6.01213029	    -13.67109684	      6.33802869	     -3.47646468
